<svg width="375" height="272" viewBox="0 0 375 272" fill="none" xmlns="http://www.w3.org/2000/svg">
<rect width="375" height="272" fill="white"/>
<path d="M172.968 158.091C172.961 156.992 172.067 156.104 170.968 156.104H79.4276C78.3132 156.104 77.4138 157.015 77.4277 158.129L78.139 214.793C78.1527 215.887 79.044 216.768 80.1388 216.768H171.323C172.433 216.768 173.33 215.865 173.323 214.755L172.968 158.091Z" fill="#DFE5F4"/>
<path d="M262.497 69.4511C262.37 68.8485 262.535 68.226 262.902 67.7317C264.494 65.5883 265.51 63.0506 265.322 60.2089C264.692 51.1139 252.166 53.1114 249.728 57.7014C247.29 62.2914 247.585 73.9363 250.737 74.7438C251.379 74.9169 252.38 74.7926 253.569 74.4102C255.175 73.8937 257.025 75.1249 256.79 76.7952L255.976 82.58C255.806 83.7836 256.741 84.8588 257.956 84.8588H263.278C264.548 84.8588 265.496 83.6897 265.235 82.4466L262.497 69.4511Z" fill="#915B3C"/>
<path d="M263.456 70.751C263.776 70.751 264.052 70.5284 264.128 70.2177C265.456 64.7841 268.325 61.0589 267.794 58.5762C267.514 57.3139 266.912 56.4013 265.972 55.8555C265.327 55.4814 264.759 54.9489 264.457 54.267C263.33 51.7154 260.806 50.6502 256.885 51.1004C250.699 51.8062 246.713 54.2397 247.502 59.4581C247.634 60.3379 248.441 60.9074 249.328 60.8312C250.661 60.7165 252.221 60.6204 254.147 61.3529C254.905 61.6456 255.446 62.4084 255.824 63.6949C255.942 64.0945 256.297 64.3859 256.714 64.3859V64.3859C257.029 64.3859 257.318 64.2167 257.49 63.9526C258.58 62.2754 259.67 61.6907 260.76 62.1646C261.858 62.6418 262.153 63.8226 261.679 65.6379C261.607 65.9122 261.579 66.1975 261.614 66.4788L261.988 69.4554C262.08 70.1957 262.71 70.751 263.456 70.751V70.751V70.751Z" fill="#3D3A39"/>
<path d="M236.722 144.395C246.414 127.608 267.261 121.499 283.285 130.751C299.309 140.002 304.442 161.111 294.75 177.898C285.057 194.685 264.21 200.793 248.186 191.542C232.162 182.29 227.029 161.182 236.722 144.395Z" fill="#DFE5F4"/>
<path d="M195.447 186.936C196.3 187.458 197.409 187.267 198.039 186.491C205.744 177.006 211.022 169.944 213.8 165.269C218.818 156.871 222.95 149.401 224.257 146.531C227.334 139.737 217.131 136.529 214.812 139.694C211.387 144.403 204.126 158.975 193.107 183.449C192.694 184.367 193.025 185.455 193.884 185.98L195.447 186.936Z" fill="#915B3C"/>
<path d="M212.619 184.266C213.648 184.684 214.82 184.184 215.23 183.152L230.027 145.933C233.33 138.826 217.281 134.129 214.867 137.429C210.059 143.956 199.525 167.136 195.727 174.659C195.139 175.823 195.672 177.379 196.881 177.87L212.619 184.266Z" fill="#F6AE5C"/>
<path d="M255.503 177.197C252.479 172.791 241.502 157.959 235.503 151.827C233.795 150.055 232.108 148.374 230.501 146.792C225.791 142.119 216.395 149.999 221.089 154.25C232.807 164.892 249.935 179.258 251.396 180.524C253.374 182.295 257.408 179.953 255.503 177.197Z" fill="#915B3C"/>
<path d="M254.779 175.187C254.794 175.191 254.815 175.188 254.827 175.198C255.853 176.056 256.531 176.729 256.846 177.275C257.067 177.657 257.307 178.159 257.572 178.788C257.949 179.686 257.573 180.712 256.729 181.2C254.113 182.71 248.139 186.159 238.809 191.546C238.052 191.983 237.046 191.911 236.562 191.182C235.936 190.239 236.017 189.457 236.801 188.897C237.765 188.209 238.592 187.56 239.262 187.033C239.408 186.919 239.538 186.784 239.647 186.634L246.603 177.038C246.743 176.859 247.005 176.805 247.184 176.946L248.069 177.624C248.458 177.923 248.945 178.076 249.431 178.008C250.412 177.871 251.166 177.625 251.696 177.319C252.245 177.002 252.851 176.359 253.586 175.349C253.835 174.971 254.346 174.891 254.736 175.114C254.759 175.127 254.753 175.179 254.779 175.187V175.187Z" fill="#D0D0D0"/>
<path d="M200.801 186.268C200.811 186.28 200.832 186.288 200.837 186.303C201.3 187.627 201.552 188.599 201.552 189.264C201.552 189.745 201.506 190.355 201.414 191.103C201.294 192.075 200.453 192.784 199.473 192.784C196.432 192.784 189.493 192.784 178.657 192.784C177.772 192.784 176.938 192.207 176.874 191.325C176.785 190.098 177.248 189.408 178.229 189.308C179.448 189.149 180.463 189.025 181.303 188.905C181.494 188.877 181.68 188.821 181.855 188.739L192.742 183.648C192.955 183.559 193.21 183.648 193.295 183.871L193.739 184.992C193.919 185.447 194.257 185.828 194.707 186.019C195.636 186.415 196.422 186.59 197.04 186.59C197.679 186.59 198.53 186.322 199.679 185.787C200.087 185.574 200.574 185.77 200.801 186.18C200.814 186.204 200.783 186.246 200.801 186.268V186.268Z" fill="#D0D0D0"/>
<path d="M235.136 147.837C248.04 145.738 256.671 144.31 261.072 143.555C273.053 141.459 276.886 135.225 275.266 121.844C275.146 120.86 274.3 120.129 273.308 120.129H252.301C252.113 120.129 251.929 120.153 251.75 120.21C248.276 121.304 235.632 126.653 213.854 136.334C209.834 138.307 210.554 144.184 211.315 146.116C211.356 146.197 217.778 157.15 230.659 179.012C231.232 179.984 232.498 180.295 233.452 179.692L248.661 170.095C249.664 169.462 249.899 168.101 249.166 167.168L235.217 149.421C235.135 149.317 235.062 149.205 235.007 149.083C234.679 148.358 234.744 147.953 235.136 147.837Z" fill="#F3BD80"/>
<g clip-path="url(#clip0)">
<path d="M236.147 110.819L220.311 116.294C216.547 116.145 213.276 116.404 210.465 117.101C209.734 117.431 208.774 118.26 211.116 118.802C213.489 119.315 215.946 119.981 216.002 120.851C216.057 121.721 214.391 122.223 214.7 123.492C214.906 124.338 217.465 123.183 222.406 120.058L236.719 116.294L236.147 110.819Z" fill="#915B3C"/>
</g>
<g clip-path="url(#clip1)">
<path d="M236.147 110.819L220.311 116.294C216.547 116.145 213.276 116.404 210.465 117.101C209.734 117.431 208.774 118.26 211.116 118.802C213.489 119.315 215.946 119.981 216.002 120.851C216.057 121.721 214.391 122.223 214.7 123.492C214.906 124.338 217.465 123.183 222.406 120.058L236.719 116.294L236.147 110.819Z" fill="#915B3C"/>
</g>
<path d="M260.097 79.3614C260.09 78.4139 259.398 77.6172 258.465 77.452L257.417 77.2667C256.82 77.1611 256.203 77.3328 255.754 77.7404C243.206 89.1341 239.687 103.2 224.405 114.802C223.807 115.256 223.493 116.002 223.61 116.743L223.973 119.045C224.133 120.06 225.051 120.792 226.075 120.701C253.208 118.293 260.246 98.0237 260.097 79.3614Z" fill="#283B8B"/>
<path d="M276.155 121.504C276.25 122.664 275.328 123.656 274.164 123.656C260.43 123.656 250.25 123.656 243.625 123.656C242.129 123.656 242.429 121.552 242.642 120.458C245.04 108.492 254.237 95.6209 254.836 78.8739C254.871 77.889 255.585 77.0494 256.559 76.8976L263.013 75.8915C263.802 75.7684 264.591 76.1251 265 76.8112C271.988 88.5316 274.636 102.777 276.155 121.504Z" fill="#DDE3E9"/>
<path d="M288.251 120.94L284.517 120.94C283.624 135.536 283.412 138.44 283.178 139.323C282.943 142.09 280.429 145.242 280.455 146.952C281.698 149.047 282.644 143.374 284.074 145.921C285.38 148.247 282.966 151.161 285.503 152.641C286.56 153.064 287.239 151.98 287.829 148.836C288.463 145.453 288.204 144.143 287.406 140.803C286.893 137.897 288.251 133.519 288.251 120.94Z" fill="#915B3C"/>
<path d="M256.211 76.5844L263.955 75.731C264.514 75.6516 265.064 75.9275 265.443 76.3462L275.865 87.8532C286.454 102.316 289.543 112.308 288.951 132.744C288.933 133.373 288.616 133.963 288.1 134.323L284.98 136.503C284.013 137.179 282.678 136.873 282.151 135.818C281.14 133.797 280.013 131.288 278.967 128.909C278.677 128.248 278.053 127.793 277.333 127.721L243.977 124.369C243.234 124.294 242.583 123.814 242.366 123.1C239.63 114.085 246.58 104.29 254.506 78.0152C254.739 77.2446 255.411 76.6725 256.211 76.5844Z" fill="#40529D"/>
<path d="M276.86 124.622C276.033 123.055 272.935 123.761 271.902 125.199V125.199C271.195 126.183 272.041 127.182 273.245 127.315L275.36 127.548C276.731 127.699 277.742 126.315 277.106 125.091C277.022 124.931 276.94 124.775 276.86 124.622Z" fill="black" fill-opacity="0.1"/>
<path d="M123.949 88.0953C124.078 87.4878 123.912 86.8593 123.537 86.3641C121.796 84.0643 120.682 81.3365 120.886 78.2793C121.567 68.5642 135.094 70.6979 137.727 75.6008C140.36 80.5037 140.042 92.9427 136.638 93.8053C135.886 94.0057 134.678 93.8327 133.25 93.3397C131.659 92.7903 129.82 94.026 130.057 95.6929L131.002 102.328C131.173 103.533 130.238 104.61 129.022 104.61H122.902C121.63 104.61 120.681 103.438 120.946 102.193L123.949 88.0953Z" fill="#B28B67"/>
<path d="M131.429 69.7606C129.966 69.5314 126.083 69.3481 125.352 69.3481C124.895 69.3481 124.392 69.4398 124.118 69.0272C123.889 68.6605 123.981 68.1105 123.889 67.6979C123.798 67.2396 123.707 66.7812 123.57 66.3228C123.25 64.9936 122.793 63.756 122.107 62.61C120.874 60.4099 119.046 58.7139 116.716 57.7055C114.157 56.6054 111.278 56.3304 108.537 56.5595C105.613 56.7887 102.917 57.7513 100.175 58.6681C97.5252 59.539 94.738 59.9057 91.9965 59.4473C89.2093 59.0347 87.1075 57.5221 84.7315 56.0553C82.3099 54.5886 79.5683 53.626 76.7354 53.8552C74.0853 54.0844 71.618 55.1844 69.4248 56.6512C67.3686 58.0263 65.678 59.6765 64.7185 62.0142C63.6676 64.5352 63.6676 67.2854 65.4039 69.4856C67.8712 72.6942 72.4404 73.5192 76.2328 73.4276C78.426 73.3817 80.5736 72.9692 82.6754 72.2358C85.4169 71.2732 87.8385 69.6231 90.3973 68.248C91.6309 67.6063 92.8646 67.1021 94.1897 66.7354C95.4691 66.3687 96.7027 66.2312 97.8907 66.9646C99.1244 67.7896 100.221 68.5688 101.592 69.1189C102.917 69.6231 104.333 69.8981 105.795 69.8523C108.583 69.8523 111.324 68.9814 114.02 68.3855C116.213 67.9271 118.589 67.4229 120.828 67.8813C121.064 67.9287 121.331 67.9914 121.603 68.0751C122.797 68.4417 122.32 69.6368 121.23 70.2454C117.214 72.4883 115.804 78.2989 117.173 82.7325C118.041 85.5285 123.25 88.783 125.26 87.3162C126.54 86.3994 125.763 85.1618 125.26 84.3368C124.301 82.7783 123.981 80.8073 125.763 79.7072C127.316 78.7905 128.915 80.9907 128.961 80.9907C129.337 80.9488 132.426 79.2204 134.873 76.6117C135.307 76.1495 135.923 75.9226 136.544 75.7998C138.112 75.4903 138.327 74.1382 137.825 73.015C137.14 71.7774 133.439 70.0815 131.429 69.7606Z" fill="#21295E"/>
<path d="M183.586 216.266C182.623 216.553 181.595 216.08 181.19 215.16C175.743 202.796 171.794 192.134 170.183 186.41C167.275 176.168 165.095 167.166 164.55 163.767C163.232 155.73 174.77 155.271 176.269 159.266C178.541 165.166 182.428 184.399 187.161 213.373C187.323 214.365 186.723 215.329 185.76 215.617L183.586 216.266ZM114.355 175.892C119.715 173.78 138.385 167.074 147.424 165.191C150.014 164.64 152.512 164.135 154.874 163.675C161.915 162.298 165.549 175.111 158.781 176.122C141.928 178.556 118.08 181.082 116.035 181.404C113.174 181.771 111.039 177.224 114.355 175.892Z" fill="#B28B67"/>
<path d="M159.3 161.776C159.253 161.024 158.851 160.333 158.178 159.992L131.384 146.417C130.723 146.083 130.307 145.405 130.307 144.665V144.665C130.307 143.581 131.186 142.701 132.271 142.701H133.519C133.685 142.701 133.853 142.723 134.014 142.764C161.816 149.827 176.08 154.333 176.715 156.325C176.718 156.333 176.719 156.339 176.719 156.347V156.347C176.719 156.369 176.727 156.389 176.742 156.404L176.757 156.419C176.762 156.423 176.766 156.428 176.77 156.434C181.644 163.129 184.8 192.478 186.238 201.45C186.441 202.717 185.53 204.076 184.26 204.265L177.841 205.219C176.838 205.369 175.886 204.74 175.576 203.774C171.047 189.674 159.013 179.335 159.32 162.043C159.312 161.954 159.305 161.865 159.3 161.776Z" fill="#A3B1D7"/>
<path d="M125.885 171.671C127.798 171.011 127.547 168.29 125.553 167.944V167.944C112.573 165.671 108.46 158.936 110.246 144.416C110.367 143.431 111.213 142.701 112.205 142.701H135.058C135.248 142.701 135.424 142.724 135.605 142.78C140.23 144.23 160.699 152.782 171.457 157.366C178.481 160.361 176.548 171.005 172.683 174.291C172.464 174.477 172.367 174.845 172.094 174.936V174.936C152.024 183.228 135.789 180.011 128.618 180.513C127.553 180.588 126.483 179.992 126.161 178.974L124.635 174.153C124.31 173.123 124.864 172.022 125.885 171.671V171.671Z" fill="#B9C9F3"/>
<path d="M116.042 174.638C116.034 174.641 115.97 174.659 115.962 174.66C114.536 174.808 113.529 175.001 112.921 175.298C112.468 175.518 111.914 175.846 111.25 176.284C110.437 176.821 110.175 177.883 110.602 178.759C112.004 181.633 115.3 188.39 120.489 199.03C120.873 199.816 121.742 200.311 122.559 199.998C123.769 199.536 124.205 198.773 123.83 197.769C123.38 196.564 123.029 195.477 122.747 194.599C122.69 194.422 122.658 194.238 122.652 194.053L122.219 181.261C122.201 181.016 121.999 180.81 121.755 180.828L120.496 180.904C120.006 180.934 119.517 180.788 119.15 180.462C118.331 179.734 117.792 179.045 117.497 178.441C117.197 177.827 117.043 176.888 116.996 175.542C117.001 175.033 116.557 174.641 116.048 174.635C116.047 174.635 116.043 174.637 116.042 174.638V174.638Z" fill="#3D3A39"/>
<path d="M179.089 213.982C179.078 213.995 179.056 214.004 179.05 214.02C178.548 215.446 178.274 216.493 178.274 217.209C178.274 217.755 178.329 218.455 178.44 219.321C178.565 220.292 179.405 221 180.384 221C183.618 221 191.245 221 203.264 221C204.147 221 204.971 220.425 205.057 219.547C205.193 218.152 204.692 217.367 203.596 217.257C202.259 217.083 201.149 216.949 200.231 216.818C200.042 216.791 199.857 216.736 199.683 216.655L187.839 211.161C187.608 211.065 187.331 211.161 187.238 211.401L186.734 212.663C186.553 213.118 186.214 213.497 185.764 213.69C184.729 214.134 183.857 214.329 183.172 214.329C182.479 214.329 181.555 214.041 180.307 213.465C179.864 213.235 179.336 213.446 179.089 213.887C179.075 213.914 179.109 213.96 179.089 213.982V213.982Z" fill="#3D3A39"/>
<path d="M92.8303 144.185L100.14 142.158C100.933 159.397 101.305 168.582 101.268 169.66C101.181 172.099 104.018 174.95 105.325 176.55C103.327 178.402 102.144 173.975 99.6565 176.365C97.3849 178.547 96.1396 181.652 92.2471 180.424C91.7566 180.272 90.9978 179.39 91.7802 178.327C93.7201 175.679 96.2889 171.222 96.396 169.968C96.6172 168.24 95.4117 159.639 92.8303 144.185Z" fill="#B28B67"/>
<rect x="153" y="67.9295" width="71.9502" height="45.1452" rx="2" fill="#21295E"/>
<rect x="156.407" y="70.751" width="64.8963" height="33.1535" rx="2" fill="white"/>
<rect x="156" y="70.751" width="64.8963" height="33.1535" rx="2" fill="white"/>
<rect x="180" y="111" width="18" height="9" rx="2" fill="#21295E"/>
<rect x="170.515" y="118.013" width="36.6805" height="2.82158" rx="1.41079" fill="#21295E"/>
<line x1="173" y1="81.134" x2="183.262" y2="81.134" stroke="#40529D" stroke-width="2" stroke-linecap="square"/>
<line x1="173" y1="85.0895" x2="203.979" y2="85.0895" stroke="#40529D" stroke-width="2" stroke-linecap="square"/>
<line x1="173" y1="89.0445" x2="203.979" y2="89.0445" stroke="#40529D" stroke-width="2" stroke-linecap="square"/>
<line x1="173" y1="92.9999" x2="203.979" y2="92.9999" stroke="#40529D" stroke-width="2" stroke-linecap="square"/>
<path d="M212.838 85.8049L215.659 88.2738L212.838 90.7427" stroke="#E89DB1" stroke-width="2" stroke-linecap="square"/>
<path d="M165.577 90.7429L163.46 88.274L165.577 85.8052" stroke="#E89DB1" stroke-width="2" stroke-linecap="square"/>
<path d="M144 129.323L163.958 122.381C167.412 119.639 170.781 117.539 174.065 116.125C175.046 115.868 176.709 115.825 174.918 117.839C173.127 119.896 171.378 122.124 172.103 122.81C172.828 123.538 174.875 122.724 175.685 123.924C176.24 124.695 172.785 125.638 165.322 126.709L150.397 135.751L144 129.323Z" fill="#B28B67"/>
<path d="M126.085 98.4575C126.099 97.51 126.793 96.7189 127.726 96.5563L129.079 96.3205C129.711 96.2105 130.362 96.4055 130.796 96.8777C138.69 105.474 137.86 120.907 143.5 123.5C148.621 125.864 152.566 125.2 160.576 122.401C161.565 122.056 162.657 122.519 163.083 123.475L164.6 126.878C164.926 127.609 164.786 128.464 164.241 129.05C156.075 137.843 146.871 147.062 139.896 142.846C128.765 136.113 125.874 112.79 126.085 98.4575Z" fill="#CB8396"/>
<path d="M109.311 144.079C109.218 145.238 110.14 146.228 111.303 146.228C125.965 146.228 136.826 146.228 143.887 146.228C145.476 146.228 145.159 143.97 144.932 142.795C142.378 129.919 132.566 116.066 131.971 98.0251C131.939 97.0412 131.227 96.2025 130.254 96.0494L123.215 94.9406C122.422 94.8156 121.628 95.176 121.219 95.8672C113.743 108.497 110.926 123.857 109.311 144.079Z" fill="#513085"/>
<path d="M105.714 132.963C103.648 145.711 106.139 156.201 102.46 162.09C102.035 162.77 101.183 163.002 100.417 162.761L96.0676 161.397C95.3866 161.184 94.8696 160.617 94.7128 159.921C89.6024 137.227 86.1147 122.718 121.165 94.8211C121.233 94.7664 121.321 94.7344 121.409 94.7344V94.7344H123.755C124.643 94.7344 125.428 95.3286 125.674 96.1823C133.936 124.809 136.432 144.331 133.125 154.749C132.876 155.532 132.132 156.028 131.31 156.028H105.064C103.912 156.028 102.997 155.057 103.061 153.906C103.438 147.091 103.748 139.953 105.714 132.963Z" fill="#E89DB1"/>
<defs>
<clipPath id="clip0">
<rect width="24.3963" height="19.1957" fill="white" transform="translate(209.448 117.868) rotate(-42.7288)"/>
</clipPath>
<clipPath id="clip1">
<rect width="24.3963" height="19.1957" fill="white" transform="translate(209.448 117.868) rotate(-42.7288)"/>
</clipPath>
</defs>
</svg>
