<svg width="618" height="536" viewBox="0 0 618 536" fill="none" xmlns="http://www.w3.org/2000/svg">
<rect width="618" height="536" fill="white"/>
<rect x="168.255" y="86.6469" width="277.753" height="172.473" rx="2" fill="#DFE5F4"/>
<rect x="181.304" y="97.7744" width="250.617" height="126.573" rx="2" fill="white"/>
<line x1="236.312" y1="143.621" x2="290.558" y2="143.621" stroke="#21295E" stroke-width="3" stroke-linecap="round"/>
<line x1="236.312" y1="153.572" x2="387.284" y2="153.572" stroke="#21295E" stroke-width="3" stroke-linecap="round"/>
<line x1="236.312" y1="163.523" x2="387.284" y2="163.523" stroke="#21295E" stroke-width="3" stroke-linecap="round"/>
<line x1="236.312" y1="173.474" x2="387.284" y2="173.474" stroke="#21295E" stroke-width="3" stroke-linecap="round"/>
<path d="M435.955 88.3211C438.385 83.2499 439.434 77.4437 437.473 71.8916C431.894 55.7848 410.032 65.5105 407.769 75.0359C405.58 84.5415 411.72 105.392 417.878 105.399C420.319 105.377 424.858 102.582 429.003 98.3138L431.83 121.236L450.241 116.302L435.955 88.3211Z" fill="#D39E82"/>
<path d="M473.807 186.506L444.683 286.915L430.959 362.242H417.236L430.959 186.506H473.807Z" fill="#D39E82"/>
<path d="M486.844 186.506C484.785 238.655 485.624 267.093 486.081 271.82C486.539 276.547 489.131 308.263 506.743 363.843H492.409C469.08 310.55 460.998 278.834 458.33 271.82C455.661 264.806 447.732 236.368 436.22 186.506H486.844V186.506Z" fill="#D39E82"/>
<path d="M474.416 186.506C466.868 221.043 453.755 276.165 435.076 351.873H414.948C413.499 274.183 419.751 223.025 430.73 186.506H474.416Z" fill="#835E8C"/>
<path d="M486.996 186.506C485.014 238.655 490.198 290.041 506.133 352.712H484.709C461.379 300.258 444.606 249.1 433.17 186.506H486.996Z" fill="#A174AC"/>
<path d="M508.722 374.163L507.96 361.43C503.309 362.803 497.591 362.269 490.577 359.829C483.105 365.09 473.651 368.75 462.368 370.656C461.529 370.808 460.919 371.647 461.071 372.485C461.071 372.562 461.071 372.562 461.071 372.638L462.139 376.45H490.577H507.121L508.722 374.163Z" fill="#191847"/>
<path d="M433.981 374.163L433.219 361.43C428.568 362.803 422.85 362.269 415.836 359.829C408.364 365.09 398.911 368.75 387.627 370.656C386.788 370.808 386.178 371.647 386.331 372.485C386.331 372.562 386.331 372.562 386.331 372.638L387.398 376.45H415.836H432.38L433.981 374.163Z" fill="#191847"/>
<path d="M416.872 145.078L387.071 135.004C381.626 130.468 376.379 127.058 371.495 124.822C370.051 124.535 367.657 124.57 370.523 128.09C373.389 131.611 376.308 135.431 375.393 136.831C374.479 138.231 371.409 137.069 370.402 139.26C369.74 140.77 374.916 142.025 385.78 143.051L408.718 157.664L416.872 145.078ZM376.511 165.124L363.421 160.696C360.644 154.606 358.047 151.735 355.72 152.145C353.772 151.637 358.342 159.115 354.769 159.048C351.271 158.968 341.927 154.267 340.712 155.72C338.941 157.968 341.811 163.268 344.491 165.737C349.547 170.265 353.319 171.458 362.227 172.365C366.869 172.785 372.111 174.415 377.954 177.256L376.511 165.124Z" fill="#D39E82"/>
<path d="M429.504 139.444C419.955 141.051 406.909 141.261 391.871 135.009L388.632 147.812C399.571 155.406 414.061 160.747 425.496 158.422C434.541 156.594 437.263 144.811 429.504 139.444Z" fill="#8491B3"/>
<path d="M420.09 157.415C410.404 161.755 392.98 161.731 367.683 157.443C363.909 170.727 362.742 179.914 364.106 185.015C386.409 192.076 404.737 193.721 419.206 191.48C420.265 200.118 422.746 208.042 427.51 214.866C437.419 228.912 476.963 207.308 491.644 207.583C487.448 172.256 480.077 167.213 473.005 150.175C464.298 129.197 447.758 101.828 445.355 102.252L423.656 106.078C425.107 121.77 422.093 139.798 420.09 157.415Z" fill="#A3B1D7"/>
<path d="M420.753 69.5404C423.627 71.1421 425.655 74.1769 428.106 78.0547C428.697 77.8018 429.373 77.7175 430.049 77.7175C433.007 77.7175 435.373 80.0779 435.373 83.0284C435.373 84.5458 434.782 85.8103 433.768 86.8219C434.951 88.5079 436.388 90.3625 437.909 92.2171C443.74 88.6765 448.134 78.4762 442.557 68.6131C437.74 48.8025 410.443 61.1104 405.204 57.7383C404.021 64.9039 407.739 70.6363 420.753 69.5404Z" fill="#3D3A39"/>
<path d="M198.825 159.352C194.599 155.494 191.396 150.415 191.13 144.429C190.254 127.105 214.589 127.947 220.355 136.072C226.043 144.207 228.199 166.22 222.391 168.574C220.08 169.484 214.731 168.577 209.193 166.13L215.264 188.835L196.013 191.199L198.825 159.352Z" fill="#FFD4C7"/>
<path d="M202.594 257.249L232.231 359.428L246.196 436.082H260.162L246.196 257.249H202.594Z" fill="#FFD4C7"/>
<path d="M189.326 257.249C191.421 310.317 190.568 339.256 190.102 344.067C189.637 348.877 186.999 381.152 169.077 437.711H183.663C207.326 383.48 215.628 351.204 218.343 344.067C221.058 336.929 229.127 307.99 240.843 257.249H189.326V257.249Z" fill="#FFD4C7"/>
<path d="M172.187 266.538L188.857 263.677C184.39 298.656 182.001 317.276 181.51 319.411C180.485 324.319 185.608 330.584 187.949 334.032C182.955 337.434 181.9 328.323 175.666 332.731C169.912 336.74 166.105 342.847 158.065 339.695C157.054 339.322 155.773 337.421 157.782 335.412C162.952 330.325 170.117 321.814 170.859 319.32C171.897 315.828 172.345 298.259 172.187 266.538Z" fill="#FFD4C7"/>
<path d="M201.973 257.249C209.654 292.395 222.999 348.489 242.007 425.531H262.412C263.886 346.472 257.524 294.412 246.352 257.249H201.973V257.249Z" fill="#303F7E"/>
<path d="M189.171 257.249C191.188 310.317 185.912 362.609 169.697 426.384H191.499C215.24 373.006 232.308 320.946 243.946 257.249H189.171V257.249Z" fill="#40529D"/>
<path d="M166.985 448.214L167.761 435.257C172.493 436.654 178.312 436.111 185.45 433.628C193.053 438.981 202.674 442.705 214.156 444.645C215.01 444.8 215.631 445.653 215.475 446.507C215.475 446.584 215.475 446.584 215.475 446.662L214.389 450.541H185.45H168.614L166.985 448.214Z" fill="#3D3A39"/>
<path d="M243.042 448.214L243.818 435.257C248.551 436.654 254.369 436.111 261.507 433.628C269.11 438.981 278.731 442.705 290.214 444.645C291.067 444.8 291.688 445.653 291.532 446.507C291.532 446.584 291.532 446.584 291.532 446.662L290.446 450.541H261.507H244.671L243.042 448.214Z" fill="#3D3A39"/>
<path d="M286 189.14L292.764 201.24L313.774 180.986C318.297 179.296 327.785 175.261 329.553 172.647C331.322 170.033 328.63 170.138 327.064 170.518C325.751 170.937 322.341 171.809 319.198 171.936C315.271 172.096 317.355 170.697 317.925 167.955C318.494 165.213 316.353 165.135 314.663 166.804C313.683 167.772 309.915 173.443 308.361 176.501L286 189.14Z" fill="#FFD4C7"/>
<path d="M191.727 204.31L191.727 184.81C225.054 176.589 264.686 191.184 301.697 178.443L306.607 191.841C269.178 232.921 221.424 226.81 191.727 204.31Z" fill="#D08C9E"/>
<path d="M192.164 270.448C219.823 265.571 240.147 261.988 253.136 259.697C255.886 259.212 254.714 255.244 253.905 253.338C245.108 230.703 222.554 208.682 216.667 175.292L198.608 175.641C188.214 201.581 188.25 231.275 192.164 270.448Z" fill="#A174AC"/>
<path d="M180.735 202.505C178.079 202.186 175.72 200.869 173.797 198.45C165.331 187.968 166.505 181.222 173.004 177.871C179.517 174.595 186.384 177.796 197.31 175.869C197.921 175.762 198.456 175.667 198.928 175.663L204.483 174.999C229.743 225.77 240.39 260.684 236.437 279.816L188.454 288.277C186.799 295.423 185.032 301.485 183.229 306.451L170.163 308.755C161.935 269.239 165.455 233.797 180.735 202.505Z" fill="#E89DB1"/>
<path d="M194.085 259.001C197.836 271.339 201.898 280.076 206.27 285.214L188.467 288.353C190.455 279.967 192.29 270.268 194.085 259.001Z" fill="black" fill-opacity="0.1"/>
<path d="M202.503 155.825C198.975 159.699 194.869 162.133 191.647 161.27C185.577 159.643 183.419 150.31 185.768 141.542C185.848 141.242 185.929 140.942 186.009 140.642C178.379 143.337 171.009 150.76 162.466 148.471C150.85 145.358 152.489 120.657 168.751 125.014C179.767 127.966 184.816 131.006 188.82 134.649C190.422 132.267 192.428 130.475 194.554 129.438C195.124 129.109 195.844 128.82 196.788 128.591C197.393 128.432 197.978 128.348 198.543 128.338C201.672 128.052 205.919 128.387 210.531 129.462C211.355 129.683 212.275 129.849 213.004 130.125C214.149 125.853 218.615 123.275 222.886 124.419C227.233 125.584 229.736 130.03 228.592 134.301C227.467 138.498 223.266 140.987 219.084 140.107C216.56 140.234 213.347 139.936 209.915 139.257C209.893 140.536 209.736 142.02 209.315 143.594C208.933 145.018 208.402 146.402 207.7 147.82C207.192 146.72 206.358 145.934 205.384 145.673C202.611 144.93 200.06 146.657 199.398 149.13C198.799 152.262 199.995 154.993 202.503 155.825Z" fill="#D24745"/>
</svg>
