<svg width="599" height="398" viewBox="0 0 599 398" fill="none" xmlns="http://www.w3.org/2000/svg">
<rect width="599" height="398" fill="white"/>
<path d="M291.168 233.845C291.161 232.745 290.268 231.858 289.168 231.858H136.94C135.826 231.858 134.926 232.768 134.94 233.883L136.135 329.076C136.149 330.171 137.04 331.051 138.135 331.051H289.766C290.875 331.051 291.773 330.148 291.766 329.038L291.168 233.845Z" fill="#DFE5F4"/>
<path d="M437.44 89.5636C437.313 88.961 437.475 88.3366 437.854 87.8514C440.672 84.2452 442.508 79.9241 442.187 75.0578C441.156 60.1863 420.675 63.4525 416.689 70.9577C412.703 78.4629 413.184 97.5039 418.338 98.8243C419.814 99.2221 422.451 98.6592 425.468 97.3138C427.009 96.6268 428.845 97.8557 428.61 99.526L426.701 113.085C426.531 114.288 427.465 115.364 428.681 115.364H440.409C441.68 115.364 442.628 114.194 442.366 112.951L437.44 89.5636Z" fill="#915B3C"/>
<path d="M439.135 92.2954C439.658 92.2954 440.11 91.9314 440.234 91.4233C442.407 82.5388 447.096 76.4476 446.229 72.388C445.706 70.0307 444.497 68.4192 442.56 67.5955C441.874 67.3038 441.309 66.7586 441.058 66.0568C439.379 61.3701 435.157 59.3874 428.391 60.1642C417.913 61.3597 411.296 65.5871 413.218 74.7682C413.4 75.6391 414.196 76.228 415.083 76.1566C417.467 75.9647 420.296 75.552 423.915 76.9283C425.154 77.4069 426.039 78.6541 426.657 80.7577C426.849 81.4112 427.43 81.8877 428.111 81.8877V81.8877C428.626 81.8877 429.099 81.611 429.38 81.1791C431.162 78.4368 432.945 77.4806 434.728 78.2555C436.576 79.0587 437.032 81.0806 436.158 84.1983C436.081 84.4713 436.055 84.7574 436.09 85.0387L436.781 90.5444C436.906 91.5449 437.757 92.2954 438.765 92.2954H439.135V92.2954Z" fill="#3D3A39"/>
<path d="M395.422 212.712C411.27 185.263 445.358 175.275 471.559 190.403C497.76 205.53 506.153 240.045 490.305 267.494C474.457 294.943 440.369 304.931 414.168 289.804C387.967 274.676 379.574 240.161 395.422 212.712Z" fill="#DFE5F4"/>
<path d="M328.878 282.851C329.731 283.372 330.839 283.183 331.47 282.407C344.449 266.463 353.316 254.629 357.943 246.844C366.146 233.112 372.903 220.898 375.04 216.205C380.072 205.096 363.389 199.851 359.597 205.027C353.95 212.791 341.922 236.956 323.648 277.589C323.235 278.507 323.564 279.6 324.423 280.126L328.878 282.851Z" fill="#915B3C"/>
<path d="M357.196 278.389C358.225 278.807 359.398 278.307 359.808 277.275L384.475 215.228C389.876 203.606 363.633 195.927 359.686 201.323C351.486 212.454 333.101 253.209 327.651 263.64C327.048 264.796 327.555 266.343 328.763 266.834L357.196 278.389Z" fill="#F6AE5C"/>
<path d="M426.131 266.349C421.187 259.144 403.238 234.892 393.428 224.865C390.636 221.967 387.877 219.219 385.249 216.632C377.548 208.99 362.185 221.876 369.86 228.827C389.02 246.227 417.028 269.718 419.415 271.787C422.65 274.683 429.246 270.854 426.131 266.349Z" fill="#915B3C"/>
<path d="M424.949 263.061C424.973 263.068 425.007 263.063 425.026 263.079C426.704 264.482 427.813 265.584 428.328 266.476C428.798 267.29 429.323 268.436 429.919 269.941C430.277 270.847 429.909 271.869 429.066 272.356C425.34 274.507 414.995 280.48 398.032 290.274C397.274 290.711 396.294 290.625 395.727 289.959C394.124 288.082 394.069 286.538 395.552 285.479C397.195 284.306 398.597 283.202 399.716 282.322C399.862 282.207 399.992 282.073 400.101 281.923L411.579 266.087C411.809 265.795 412.237 265.707 412.53 265.937L414.36 267.341C414.75 267.64 415.236 267.789 415.724 267.734C417.564 267.528 418.956 267.097 419.907 266.548C420.805 266.029 421.795 264.979 422.997 263.327C423.405 262.709 424.241 262.577 424.877 262.942C424.916 262.964 424.906 263.048 424.949 263.061V263.061Z" fill="#D0D0D0"/>
<path d="M336.687 281.18C336.704 281.2 336.737 281.213 336.746 281.238C337.502 283.403 337.915 284.992 337.915 286.078C337.915 287.084 337.792 288.432 337.547 290.155C337.408 291.125 336.576 291.835 335.596 291.835C331.266 291.835 319.246 291.835 299.537 291.835C298.653 291.835 297.844 291.257 297.685 290.387C297.213 287.795 297.94 286.338 299.779 286.151C301.862 285.879 303.579 285.67 304.989 285.465C305.18 285.437 305.365 285.381 305.54 285.299L323.509 276.897C323.857 276.751 324.275 276.897 324.414 277.261L325.317 279.543C325.498 279.998 325.837 280.375 326.281 280.579C327.995 281.364 329.43 281.706 330.538 281.706C331.582 281.706 332.974 281.269 334.853 280.395C335.52 280.045 336.316 280.366 336.687 281.036C336.709 281.076 336.658 281.145 336.687 281.18V281.18Z" fill="#D0D0D0"/>
<path d="M392.828 218.34C413.929 214.908 428.042 212.574 435.237 211.338C455.149 207.856 461.298 197.381 458.308 174.75C458.178 173.767 457.333 173.034 456.342 173.034H420.716C420.528 173.034 420.352 173.057 420.173 173.112C414.759 174.768 394.023 183.531 358.03 199.531C351.458 202.758 352.634 212.368 353.879 215.526C353.947 215.661 364.667 233.943 386.17 270.437C386.743 271.409 388.014 271.729 388.968 271.127L416.135 253.984C417.138 253.351 417.373 251.989 416.64 251.057L392.883 220.832C392.801 220.727 392.728 220.614 392.671 220.494C392.075 219.235 392.168 218.537 392.828 218.34Z" fill="#F3BD80"/>
<g clip-path="url(#clip0)">
<path d="M394.483 157.812L368.589 166.765C362.435 166.521 357.085 166.945 352.49 168.084C351.294 168.624 349.724 169.98 353.554 170.866C357.434 171.705 361.452 172.794 361.542 174.216C361.633 175.638 358.909 176.46 359.414 178.535C359.751 179.918 363.935 178.029 372.015 172.919L395.418 166.765L394.483 157.812Z" fill="#915B3C"/>
</g>
<g clip-path="url(#clip1)">
<path d="M394.483 157.812L368.589 166.765C362.435 166.521 357.085 166.945 352.49 168.084C351.294 168.624 349.724 169.98 353.554 170.866C357.434 171.705 361.452 172.794 361.542 174.216C361.633 175.638 358.909 176.46 359.414 178.535C359.751 179.918 363.935 178.029 372.015 172.919L395.418 166.765L394.483 157.812Z" fill="#915B3C"/>
</g>
<path d="M433.631 105.34C433.616 104.393 432.925 103.598 431.992 103.432L428.663 102.843C428.065 102.738 427.447 102.911 426.996 103.316C405.937 122.17 400.363 145.594 374.663 164.791C374.062 165.24 373.744 165.99 373.861 166.731L374.755 172.398C374.915 173.414 375.843 174.143 376.868 174.065C422.691 170.56 434.148 136.396 433.631 105.34Z" fill="#283B8B"/>
<path d="M460.01 176.646C460.102 177.806 459.183 178.801 458.019 178.801C434.865 178.801 417.762 178.801 406.71 178.801C404.264 178.801 404.753 175.361 405.103 173.572C409.076 153.749 424.459 132.407 425.073 104.494C425.094 103.509 425.81 102.665 426.783 102.513L439.237 100.572C440.026 100.449 440.815 100.806 441.23 101.489C453.15 121.07 457.513 144.966 460.01 176.646Z" fill="#DDE3E9"/>
<path d="M479.679 174.361L473.573 174.361C472.112 198.227 471.766 202.975 471.383 204.419C470.999 208.943 466.889 214.098 466.931 216.893C468.963 220.32 470.51 211.044 472.848 215.208C474.983 219.011 471.037 223.777 475.185 226.196C476.914 226.888 478.024 225.115 478.988 219.974C480.025 214.443 479.601 212.301 478.296 206.838C477.457 202.088 479.679 194.928 479.679 174.361Z" fill="#915B3C"/>
<path d="M439.952 100.438C440.143 100.411 440.334 100.395 440.525 100.385C441.089 100.355 441.628 100.608 442.007 101.027L459.426 120.26C476.849 144.058 481.856 160.452 480.804 194.298C480.784 194.927 480.468 195.52 479.952 195.88L473.185 200.609C472.218 201.285 470.881 200.981 470.338 199.933C468.439 196.271 466.211 191.3 464.2 186.711C463.91 186.049 463.286 185.594 462.567 185.522L406.517 179.89C405.775 179.815 405.128 179.333 404.887 178.627C399.768 163.585 411.469 147.654 424.746 103.362C424.977 102.591 425.651 102.014 426.451 101.926L439.952 100.438Z" fill="#40529D"/>
<path d="M459.605 177.574C458.676 175.669 455.477 176.04 454.764 178.036C454.186 179.653 453.519 180.526 452.645 181.743C451.799 182.92 452.576 184.501 454.017 184.66L460.203 185.343C461.731 185.511 462.865 183.965 462.184 182.586C461.226 180.645 460.453 179.313 459.605 177.574Z" fill="black" fill-opacity="0.1"/>
<path d="M211.154 120.044C211.284 119.436 211.12 118.806 210.734 118.319C207.668 114.457 205.667 109.825 206.015 104.605C207.129 88.7196 229.248 92.2084 233.553 100.225C237.858 108.242 237.339 128.582 231.772 129.992C230.127 130.43 227.147 129.776 223.758 128.238C222.225 127.542 220.399 128.771 220.636 130.438L222.763 145.377C222.934 146.582 221.999 147.659 220.782 147.659H207.744C206.471 147.659 205.523 146.487 205.788 145.242L211.154 120.044Z" fill="#B28B67"/>
<path d="M223.254 90.6761C220.863 90.3013 214.513 90.0015 213.317 90.0015C212.57 90.0015 211.749 90.1514 211.3 89.4769C210.927 88.8773 211.076 87.9779 210.927 87.3034C210.777 86.5539 210.628 85.8044 210.404 85.0549C209.881 82.8813 209.134 80.8577 208.013 78.984C205.996 75.3864 203.007 72.6133 199.197 70.9644C195.013 69.1656 190.306 68.7159 185.824 69.0907C181.042 69.4654 176.634 71.0394 172.151 72.5383C167.818 73.9624 163.26 74.562 158.778 73.8125C154.22 73.1379 150.784 70.6646 146.899 68.2662C142.939 65.8679 138.456 64.2939 133.824 64.6687C129.491 65.0434 125.456 66.8422 121.87 69.2406C118.508 71.4891 115.744 74.1872 114.175 78.0096C112.456 82.1319 112.456 86.6288 115.295 90.2264C119.33 95.4728 126.801 96.8219 133.002 96.672C136.588 96.5971 140.1 95.9225 143.537 94.7233C148.019 93.1494 151.979 90.4512 156.163 88.2027C158.18 87.1535 160.197 86.329 162.364 85.7294C164.456 85.1298 166.473 84.905 168.416 86.1042C170.433 87.4533 172.226 88.7274 174.467 89.6268C176.634 90.4512 178.95 90.9009 181.341 90.826C185.898 90.826 190.381 89.4019 194.789 88.4276C198.375 87.6781 202.26 86.8537 205.921 87.6032C206.722 87.7638 207.737 88.0321 208.599 88.4889C209.702 89.0733 209.111 90.3508 207.952 90.814C200.339 93.8563 197.556 104.153 199.944 111.887C201.364 116.459 209.881 121.78 213.168 119.382C215.26 117.883 213.99 115.859 213.168 114.51C211.599 111.962 211.076 108.739 213.99 106.94C216.53 105.441 219.145 109.039 219.22 109.039C219.857 108.968 225.259 105.935 229.32 101.407C229.743 100.935 230.354 100.687 230.986 100.637C234.12 100.388 234.598 97.9756 233.714 95.9975C232.593 93.9738 226.542 91.2007 223.254 90.6761Z" fill="#21295E"/>
<path d="M307.468 330.549C306.505 330.836 305.478 330.363 305.071 329.444C295.932 308.794 289.301 290.928 286.622 281.412C281.868 264.665 278.303 249.946 277.412 244.389C275.258 231.247 294.124 230.496 296.575 237.029C300.318 246.75 306.744 278.611 314.563 326.602C314.724 327.594 314.126 328.563 313.163 328.85L307.468 330.549ZM195.336 264.214C204.101 260.76 234.628 249.796 249.409 246.717C253.643 245.816 257.728 244.989 261.591 244.239C273.103 241.986 279.046 262.938 267.978 264.59C240.422 268.57 201.427 272.7 198.085 273.226C193.405 273.827 189.914 266.392 195.336 264.214Z" fill="#B28B67"/>
<path d="M268.795 240.353C268.778 239.6 268.362 238.91 267.689 238.569L222.517 215.683C221.844 215.342 221.42 214.653 221.42 213.899V211.943C221.42 210.838 222.316 209.943 223.42 209.943H226.83C226.996 209.943 227.165 209.965 227.326 210.005C272.888 221.578 296.263 228.958 297.304 232.22C297.308 232.232 297.309 232.243 297.309 232.256V232.256C297.309 232.291 297.323 232.324 297.348 232.349L297.372 232.373C297.379 232.381 297.386 232.388 297.393 232.397C305.679 243.778 310.928 295.191 313.141 307.585C313.366 308.849 312.484 310.184 311.215 310.373L298.027 312.335C297.023 312.484 296.069 311.855 295.776 310.884C288.651 287.272 268.351 270.283 268.86 241.569C268.823 241.163 268.804 240.758 268.795 240.353Z" fill="#A3B1D7"/>
<path d="M218.514 255.821C220.437 255.159 220.252 252.416 218.252 252.045C216.626 251.743 215.084 251.468 213.646 251.218C192.102 247.445 185.498 236.154 188.757 211.661C188.888 210.678 189.733 209.943 190.725 209.943H229.37C229.559 209.943 229.728 209.964 229.909 210.019C237.118 212.222 270.977 226.368 288.705 233.921C300.191 238.819 297.029 256.224 290.711 261.596C290.352 261.901 290.194 262.502 289.747 262.651V262.651C255.749 276.698 228.482 270.547 217.451 271.884C216.391 272.012 215.329 271.427 215.007 270.409L211.777 260.204C211.45 259.17 212.007 258.063 213.032 257.71L218.514 255.821Z" fill="#B9C9F3"/>
<path d="M198.094 262.163C198.082 262.169 197.978 262.198 197.964 262.199C195.632 262.442 193.986 262.757 192.991 263.242C192.058 263.698 190.862 264.43 189.372 265.455C188.569 266.007 188.304 267.064 188.731 267.94C190.719 272.016 196.4 283.663 205.772 302.88C206.156 303.666 207.017 304.14 207.862 303.915C210.509 303.211 211.526 301.853 210.829 299.986C210.065 297.937 209.475 296.097 209.004 294.633C208.947 294.456 208.915 294.273 208.909 294.087L208.195 272.992C208.166 272.592 207.836 272.256 207.436 272.285L204.894 272.44C204.404 272.469 203.918 272.321 203.543 272.004C201.997 270.696 200.998 269.458 200.474 268.383C199.984 267.378 199.733 265.842 199.654 263.641C199.662 262.809 198.937 262.169 198.105 262.159C198.103 262.159 198.096 262.162 198.094 262.163V262.163Z" fill="#3D3A39"/>
<path d="M301.185 326.497C301.167 326.518 301.131 326.532 301.121 326.559C300.3 328.89 299.853 330.603 299.853 331.772C299.853 332.881 299.992 334.376 300.271 336.295C300.412 337.264 301.249 337.972 302.228 337.972C306.815 337.972 319.956 337.972 341.65 337.972C342.533 337.972 343.34 337.395 343.508 336.529C344.064 333.664 343.281 332.054 341.257 331.851C338.983 331.555 337.109 331.329 335.574 331.108C335.384 331.08 335.2 331.025 335.026 330.944L315.493 321.884C315.115 321.727 314.662 321.884 314.51 322.277L313.508 324.788C313.326 325.243 312.986 325.619 312.541 325.823C310.655 326.687 309.077 327.064 307.861 327.064C306.728 327.064 305.217 326.593 303.177 325.651C302.452 325.275 301.589 325.62 301.186 326.342C301.162 326.385 301.217 326.46 301.185 326.497V326.497Z" fill="#3D3A39"/>
<path d="M160.141 212.37L172.093 209.055C173.391 237.243 173.999 252.262 173.938 254.025C173.796 258.012 178.434 262.674 180.572 265.291C177.305 268.318 175.371 261.08 171.303 264.987C167.589 268.555 165.553 273.632 159.188 271.624C158.386 271.376 157.145 269.934 158.424 268.197C161.596 263.866 165.797 256.578 165.972 254.528C166.333 251.702 164.362 237.639 160.141 212.37Z" fill="#B28B67"/>
<rect x="258.526" y="87.682" width="117.648" height="73.8181" rx="2" fill="#21295E"/>
<rect x="264.097" y="92.2953" width="106.114" height="54.2102" rx="2" fill="white"/>
<rect x="263.432" y="92.2953" width="106.114" height="54.2102" rx="2" fill="white"/>
<rect x="302.675" y="158.108" width="29.4323" height="14.7161" rx="2" fill="#21295E"/>
<rect x="287.165" y="169.574" width="59.9772" height="4.61363" rx="2" fill="#21295E"/>
<line x1="290.594" y1="109.908" x2="308.643" y2="109.908" stroke="#40529D" stroke-width="2" stroke-linecap="square"/>
<line x1="290.594" y1="116.376" x2="342.519" y2="116.376" stroke="#40529D" stroke-width="2" stroke-linecap="square"/>
<line x1="290.594" y1="122.843" x2="342.519" y2="122.843" stroke="#40529D" stroke-width="2" stroke-linecap="square"/>
<line x1="290.594" y1="129.31" x2="342.519" y2="129.31" stroke="#40529D" stroke-width="2" stroke-linecap="square"/>
<path d="M356.369 116.91L360.982 120.947L356.369 124.984" stroke="#E89DB1" stroke-width="2" stroke-linecap="square"/>
<path d="M279.091 124.985L275.631 120.948L279.091 116.911" stroke="#E89DB1" stroke-width="2" stroke-linecap="square"/>
<path d="M243.81 188.069L276.444 176.718C282.092 172.233 287.6 168.8 292.97 166.488C294.573 166.068 297.293 165.997 294.364 169.291C291.436 172.654 288.577 176.297 289.762 177.418C290.948 178.61 294.295 177.278 295.619 179.24C296.526 180.501 290.878 182.043 278.675 183.794L254.27 198.579L243.81 188.069Z" fill="#B28B67"/>
<path d="M214.536 136.563C214.556 135.616 215.249 134.83 216.182 134.667L220.051 133.993C220.683 133.883 221.333 134.081 221.777 134.544C235.16 148.499 233.667 174.259 242.993 178.547C251.6 182.52 258.175 181.263 272.024 176.359C273.011 176.01 274.108 176.473 274.534 177.429L277.835 184.836C278.161 185.566 278.021 186.42 277.477 187.006C263.984 201.564 248.667 217.172 237.099 210.18C218.628 199.006 214.035 159.895 214.536 136.563Z" fill="#B53C3B"/>
<path d="M186.982 213.555C186.892 214.715 187.811 215.71 188.974 215.71C213.645 215.71 231.861 215.71 243.625 215.71C246.224 215.71 245.705 212.017 245.333 210.097C241.106 188.786 224.721 165.839 224.113 135.811C224.093 134.827 223.379 133.983 222.407 133.83L208.993 131.717C208.2 131.592 207.407 131.953 206.992 132.641C194.275 153.709 189.636 179.428 186.982 213.555Z" fill="#E89DB1"/>
<path d="M181.208 194.02C177.745 215.38 182.109 232.863 175.423 242.346C174.96 243.002 174.115 243.236 173.349 242.996L164.736 240.294C164.055 240.08 163.537 239.511 163.381 238.815C154.939 201.295 148.793 177.561 206.472 131.653C206.584 131.564 206.728 131.511 206.872 131.511V131.511H211.659C212.547 131.511 213.333 132.109 213.581 132.962C227.522 181.035 231.603 213.534 225.757 230.462C225.489 231.238 224.747 231.734 223.926 231.734H178.795C177.643 231.734 176.729 230.763 176.794 229.612C177.449 218.064 177.863 205.91 181.208 194.02Z" fill="#D24745"/>
<defs>
<clipPath id="clip0">
<rect width="39.891" height="31.3874" fill="white" transform="translate(350.826 169.338) rotate(-42.7288)"/>
</clipPath>
<clipPath id="clip1">
<rect width="39.891" height="31.3874" fill="white" transform="translate(350.826 169.338) rotate(-42.7288)"/>
</clipPath>
</defs>
</svg>
